<?xml version="1.0" standalone="no"?>
<!DOCTYPE svg PUBLIC "-//W3C//DTD SVG 20010904//EN"
 "http://www.w3.org/TR/2001/REC-SVG-20010904/DTD/svg10.dtd">
<svg version="1.0" xmlns="http://www.w3.org/2000/svg"
 width="192.000000pt" height="192.000000pt" viewBox="0 0 192.000000 192.000000"
 preserveAspectRatio="xMidYMid meet">
<metadata>
Created by potrace 1.10, written by Peter Selinger 2001-2011
</metadata>
<g transform="translate(0.000000,192.000000) scale(0.100000,-0.100000)"
fill="#000000" stroke="none">
<path d="M830 1581 c-41 -4 -81 -11 -89 -15 -7 -5 -27 -12 -45 -17 -73 -18
-187 -76 -246 -124 -141 -114 -220 -265 -220 -420 0 -150 70 -295 191 -397 29
-24 63 -53 76 -65 l24 -23 -24 -37 c-68 -112 -71 -141 -17 -194 22 -23 37 -29
72 -29 43 0 119 20 171 46 16 8 33 14 38 14 5 0 42 20 82 44 55 33 86 45 132
50 216 23 347 70 475 169 139 109 220 262 220 419 0 305 -296 565 -660 581
-58 3 -139 2 -180 -2z"/>
</g>
</svg>
