<?xml version="1.0" standalone="no"?>
<!DOCTYPE svg PUBLIC "-//W3C//DTD SVG 20010904//EN"
 "http://www.w3.org/TR/2001/REC-SVG-20010904/DTD/svg10.dtd">
<svg version="1.0" xmlns="http://www.w3.org/2000/svg"
 width="150.000000pt" height="150.000000pt" viewBox="0 0 150.000000 150.000000"
 preserveAspectRatio="xMidYMid meet">
<metadata>
Created by potrace 1.10, written by Peter Selinger 2001-2011
</metadata>
<g transform="translate(0.000000,150.000000) scale(0.100000,-0.100000)"
fill="#000000" stroke="none">
<path d="M668 1429 c-11 -6 -18 -22 -18 -40 0 -67 -50 -129 -250 -309 -127
-115 -197 -214 -242 -342 -27 -80 -29 -278 -3 -341 44 -106 62 -136 120 -192
62 -61 141 -106 245 -141 79 -27 360 -27 440 0 193 64 292 155 365 333 27 65
24 247 -5 333 -74 220 -253 441 -531 656 -62 47 -95 59 -121 43z m185 -638
c112 -121 158 -231 160 -376 1 -100 1 -101 -35 -155 -60 -90 -121 -121 -238
-121 -94 -1 -138 15 -196 69 -58 53 -77 99 -77 187 -1 97 23 151 90 209 21 18
24 18 49 1 39 -25 92 -22 112 6 27 37 33 69 26 141 -11 116 25 129 109 39z"/>
</g>
</svg>
