<?xml version="1.0" encoding="UTF-8"?>
<svg version="1.1" xmlns="http://www.w3.org/2000/svg" width="30" height="30">
<path d="M0 0 C0.61875 0.5775 1.2375 1.155 1.875 1.75 C1.375 3.875 1.375 3.875 -0.125 5.75 C-3.125 6.75 -3.125 6.75 -6.0625 6.0625 C-9.17311817 5.4241295 -9.17311817 5.4241295 -11.5625 7.3125 C-13.41578141 9.70611144 -13.41578141 9.70611144 -13.0625 12.875 C-12.35805313 16.04174932 -12.35805313 16.04174932 -9.125 17.75 C-5.29751095 17.56767408 -5.29751095 17.56767408 -2.125 15.75 C-3.3315625 15.6571875 -3.3315625 15.6571875 -4.5625 15.5625 C-5.408125 15.294375 -6.25375 15.02625 -7.125 14.75 C-7.69140625 11.75 -7.69140625 11.75 -7.125 8.75 C-2.78231909 7.47940792 1.48091663 7.76501755 5.875 8.75 C6.99663285 12.04892014 6.99508558 12.65109656 5.875 15.75 C3.62294145 20.08729795 1.4363976 22.88397371 -3.125 24.75 C-7.95223092 25.28635899 -10.10390786 25.27017901 -14.4375 23.0625 C-18.5919881 19.48770791 -19.95141779 17.31223989 -20.5625 11.8125 C-20.38494127 7.5349487 -18.93513746 5.01583542 -16.125 1.75 C-11.16947441 -2.37960466 -5.78538041 -2.31415217 0 0 Z " fill="#62AF4A" transform="translate(22.125,3.25)"/>
<path d="M0 0 C0.61875 0.5775 1.2375 1.155 1.875 1.75 C1.375 3.875 1.375 3.875 -0.125 5.75 C-3.125 6.75 -3.125 6.75 -6.0625 6.0625 C-9.15777791 5.41100217 -9.15777791 5.41100217 -11.375 7.3125 C-13.29150581 9.71790399 -13.29150581 9.71790399 -14.125 12.875 C-15.125 15.75 -15.125 15.75 -17.1875 17.25 C-18.1465625 17.4975 -18.1465625 17.4975 -19.125 17.75 C-20.73342789 14.53314421 -20.59278535 11.2388991 -20.125 7.75 C-15.75375286 -0.83059624 -8.84291401 -3.53716561 0 0 Z " fill="#FF4F00" transform="translate(22.125,3.25)"/>
<path d="M0 0 C4.34067632 -1.27000557 8.60880073 -0.99156113 13 0 C14.28196794 4.08627281 13.33622982 6.17623694 11.75 10.0625 C11.1725 10.701875 10.595 11.34125 10 12 C7.8125 11.5625 7.8125 11.5625 6 10 C6 8.68 6 7.36 6 6 C5.01 6.04125 4.02 6.0825 3 6.125 C2.01 6.08375 1.02 6.0425 0 6 C-0.59375 3.04296875 -0.59375 3.04296875 0 0 Z " fill="#317DBC" transform="translate(15,12)"/>
<path d="M0 0 C2.5625 1 2.5625 1 5 3 C5.625 6 5.625 6 5 9 C2.5625 11 2.5625 11 0 12 C-1.12256131 9.75487738 -1.13413762 8.48543351 -1.125 6 C-1.12886719 4.948125 -1.12886719 4.948125 -1.1328125 3.875 C-1 2 -1 2 0 0 Z " fill="#FCBF07" transform="translate(3,9)"/>
</svg>
