<?xml version="1.0" standalone="no"?>
<!DOCTYPE svg PUBLIC "-//W3C//DTD SVG 20010904//EN"
 "http://www.w3.org/TR/2001/REC-SVG-20010904/DTD/svg10.dtd">
<svg version="1.0" xmlns="http://www.w3.org/2000/svg"
 width="150.000000pt" height="150.000000pt" viewBox="0 0 150.000000 150.000000"
 preserveAspectRatio="xMidYMid meet">
<metadata>
Created by potrace 1.10, written by Peter Selinger 2001-2011
</metadata>
<g transform="translate(0.000000,150.000000) scale(0.100000,-0.100000)"
fill="#000000" stroke="none">
<path d="M779 1352 c-47 -32 -399 -397 -405 -420 -11 -40 11 -72 47 -72 18 0
40 7 49 15 15 13 22 9 73 -39 42 -39 56 -58 51 -70 -4 -10 -107 -117 -229
-239 -122 -122 -230 -234 -239 -249 -14 -21 -15 -31 -6 -47 14 -28 46 -43 73
-36 12 4 131 116 265 248 l243 242 59 -62 c55 -56 75 -93 50 -93 -5 0 -10 -18
-10 -40 0 -34 4 -42 26 -50 14 -6 36 -7 48 -4 13 3 118 101 235 218 219 221
230 236 197 281 -19 26 -70 24 -100 -4 -19 -18 -28 -20 -43 -13 -10 6 -85 78
-167 160 l-149 150 12 32 c16 47 14 67 -11 90 -27 24 -36 25 -69 2z"/>
<path d="M826 279 c-32 -25 -33 -49 -2 -78 23 -22 29 -22 262 -22 l239 0 23
26 c28 33 28 40 -3 70 l-24 25 -234 0 c-222 0 -236 -1 -261 -21z"/>
</g>
</svg>
