<?xml version="1.0" standalone="no"?>
<!DOCTYPE svg PUBLIC "-//W3C//DTD SVG 20010904//EN"
 "http://www.w3.org/TR/2001/REC-SVG-20010904/DTD/svg10.dtd">
<svg version="1.0" xmlns="http://www.w3.org/2000/svg"
 width="180.000000pt" height="180.000000pt" viewBox="0 0 180.000000 180.000000"
 preserveAspectRatio="xMidYMid meet">
<metadata>
Created by potrace 1.10, written by Peter Selinger 2001-2011
</metadata>
<g transform="translate(0.000000,180.000000) scale(0.100000,-0.100000)"
fill="#000000" stroke="none">
<path d="M1186 1645 c-9 -13 -16 -33 -16 -43 0 -24 -29 -49 -90 -78 -8 -4 -46
-26 -85 -49 -38 -22 -77 -44 -85 -48 -19 -10 -47 -27 -82 -51 -22 -15 -28 -26
-28 -57 0 -21 5 -41 11 -44 5 -4 15 -17 20 -28 5 -12 18 -35 28 -52 11 -16 32
-52 47 -80 49 -89 55 -100 74 -130 11 -16 23 -37 27 -45 20 -45 74 -119 91
-124 21 -7 59 8 147 59 33 20 69 40 80 45 11 6 34 19 50 30 17 11 40 24 52 29
11 5 24 15 28 20 9 15 51 14 75 -1 16 -10 25 -10 47 4 38 23 40 56 5 114 -15
27 -31 56 -35 64 -4 8 -16 29 -27 45 -11 17 -23 37 -27 45 -4 8 -26 47 -48 85
-23 39 -44 77 -48 85 -4 8 -16 29 -27 45 -11 17 -23 37 -27 45 -13 30 -76 125
-87 132 -22 15 -54 7 -70 -17z"/>
<path d="M665 1149 c-27 -17 -63 -37 -80 -45 -16 -8 -43 -23 -60 -34 -16 -11
-35 -22 -42 -26 -6 -3 -19 -17 -28 -30 -17 -26 -14 -32 74 -183 15 -25 30 -53
34 -61 47 -96 78 -110 152 -65 22 14 49 29 60 35 90 47 140 81 143 98 2 10
-17 52 -41 93 -24 41 -46 81 -50 89 -4 8 -16 29 -27 45 -10 17 -29 49 -41 73
-13 23 -27 42 -33 41 -6 0 -33 -14 -61 -30z"/>
<path d="M327 820 c-31 -24 -40 -25 -73 -3 -24 15 -27 15 -52 -4 -15 -11 -29
-28 -31 -38 -3 -18 21 -70 59 -130 11 -16 24 -40 30 -53 13 -30 55 -46 83 -31
28 15 37 28 37 58 0 25 19 45 58 61 28 12 28 31 -3 80 -14 22 -25 44 -25 49 0
11 -32 31 -48 31 -5 0 -21 -9 -35 -20z"/>
<path d="M800 635 c-7 -8 -17 -15 -22 -15 -6 0 -23 -9 -39 -20 l-28 -21 -3
-142 -3 -142 -95 -3 c-80 -2 -98 -6 -117 -24 -29 -27 -29 -49 0 -76 23 -21 30
-22 278 -22 254 0 256 0 277 23 28 30 28 48 -1 75 -19 18 -37 22 -117 24 l-95
3 -3 170 c-1 93 -6 173 -11 178 -4 4 -14 1 -21 -8z"/>
</g>
</svg>
