<?xml version="1.0" standalone="no"?>
<!DOCTYPE svg PUBLIC "-//W3C//DTD SVG 20010904//EN"
 "http://www.w3.org/TR/2001/REC-SVG-20010904/DTD/svg10.dtd">
<svg version="1.0" xmlns="http://www.w3.org/2000/svg"
 width="288.000000pt" height="288.000000pt" viewBox="0 0 288.000000 288.000000"
 preserveAspectRatio="xMidYMid meet">
<metadata>
Created by potrace 1.10, written by Peter Selinger 2001-2011
</metadata>
<g transform="translate(0.000000,288.000000) scale(0.100000,-0.100000)"
fill="#000000" stroke="none">
<path d="M2092 2629 c-13 -5 -92 -78 -177 -163 -124 -125 -155 -161 -161 -190
-10 -54 3 -99 37 -132 26 -25 38 -29 89 -29 39 0 64 5 76 16 11 9 27 19 37 22
16 6 17 -40 17 -883 0 -585 4 -906 11 -938 6 -33 20 -59 40 -78 26 -25 38 -29
89 -29 51 0 63 4 89 29 20 19 34 45 40 78 7 32 11 353 11 938 0 843 1 889 18
883 9 -3 25 -13 36 -22 12 -11 37 -16 76 -16 51 0 63 4 89 29 34 33 47 78 37
132 -6 29 -37 65 -161 190 -84 85 -166 158 -180 164 -32 12 -82 12 -113 -1z"/>
<path d="M1372 1999 c-13 -5 -92 -78 -177 -163 -124 -125 -155 -161 -161 -190
-10 -54 3 -99 37 -132 26 -25 38 -29 89 -29 39 0 64 5 76 16 11 9 27 19 37 22
16 6 17 -25 17 -568 0 -364 4 -592 11 -623 6 -33 20 -59 40 -78 26 -25 38 -29
89 -29 51 0 63 4 89 29 20 19 34 45 40 78 7 31 11 259 11 623 0 543 1 574 18
568 9 -3 25 -13 36 -22 12 -11 37 -16 76 -16 51 0 63 4 89 29 34 33 47 78 37
132 -6 29 -37 65 -161 190 -84 85 -166 158 -180 164 -32 12 -82 12 -113 -1z"/>
<path d="M652 1369 c-13 -5 -92 -78 -177 -163 -124 -125 -155 -161 -161 -190
-10 -54 3 -99 37 -132 26 -25 38 -29 89 -29 39 0 64 5 76 16 11 9 27 19 37 22
16 6 17 -10 17 -253 0 -292 7 -344 51 -386 26 -25 38 -29 89 -29 51 0 63 4 89
29 44 42 51 94 51 386 0 243 1 259 18 253 9 -3 25 -13 36 -22 12 -11 37 -16
76 -16 51 0 63 4 89 29 34 33 47 78 37 132 -6 29 -37 65 -161 190 -84 85 -166
158 -180 164 -32 12 -82 12 -113 -1z"/>
</g>
</svg>
