<?xml version="1.0" standalone="no"?>
<!DOCTYPE svg PUBLIC "-//W3C//DTD SVG 20010904//EN"
 "http://www.w3.org/TR/2001/REC-SVG-20010904/DTD/svg10.dtd">
<svg version="1.0" xmlns="http://www.w3.org/2000/svg"
 width="48.000000pt" height="48.000000pt" viewBox="0 0 48.000000 48.000000"
 preserveAspectRatio="xMidYMid meet">
<metadata>
Created by potrace 1.10, written by Peter Selinger 2001-2011
</metadata>
<g transform="translate(0.000000,48.000000) scale(0.050000,-0.050000)"
fill="#000000" stroke="none">
<path d="M280 855 c-378 -202 -252 -768 176 -791 429 -23 617 518 267 765
-120 85 -313 96 -443 26z m388 -63 c155 -91 221 -319 139 -478 -30 -59 -35
-61 -55 -26 -66 114 -105 142 -161 116 -68 -31 -154 -31 -222 0 -56 26 -95 -2
-161 -116 -34 -58 -88 62 -88 196 0 281 304 451 548 308z"/>
<path d="M361 721 c-151 -151 29 -383 218 -282 147 79 72 321 -99 321 -53 0
-93 -13 -119 -39z"/>
</g>
</svg>
